<svg id="Calque_1" data-name="Calque 1" xmlns="http://www.w3.org/2000/svg" width="32" height="32" viewBox="0 0 32 32"><title>Sans titre - 1</title><g id="Layer_543" data-name="Layer 543"><circle cx="16" cy="16" r="16" fill="#fff"/><path d="M21.33 7.31H10.67a3.36 3.36 0 0 0-3.36 3.36v10.66a3.36 3.36 0 0 0 3.36 3.36h10.66a3.36 3.36 0 0 0 3.36-3.36V10.67a3.36 3.36 0 0 0-3.36-3.36zm1 2h.38v2.95h-2.97V9.32zm-8.78 4.9a3.05 3.05 0 1 1-.61 1.79 3.06 3.06 0 0 1 .58-1.78zM23 21.33A1.67 1.67 0 0 1 21.33 23H10.67A1.67 1.67 0 0 1 9 21.33v-7.11h2.6a4.75 4.75 0 1 0 8.81 0H23z" fill="#1a1a1a"/></g></svg>