<svg id="Calque_1" data-name="Calque 1" xmlns="http://www.w3.org/2000/svg" width="219.54" height="32" viewBox="0 0 219.54 32"><title>Sans titre - 1</title><path fill="#e1001a" d="M123.69 25.55h4.99v5.43h-4.99z"/><path d="M58.09 30.42l-.29.58h5.4l2.35-4.77h14.96L82.86 31h5.4L73.05.08zm9.82-9L73 11l5.11 10.4zM36.93 30.99h16.63v-4.85H41.78v-7.69h11.1V13.6h-11.1V5.89h11.78V1.04H36.93v29.95zM110.54 19.09L92.33 0v30.99h4.85V12.88L115.39 32V1.05h-4.85v18.04zM155.15 19.09L136.94 0v30.99h4.85V12.88L160 32V1.05h-4.85v18.04zM194.68 15.47h-14.22v4.85h8.75a2.89 2.89 0 0 1-.11.44 8.74 8.74 0 0 1-8.6 5.9 10 10 0 0 1-7.08-3 10.83 10.83 0 0 1-3.17-7.66 10.49 10.49 0 0 1 10.26-10.7 10.09 10.09 0 0 1 7.66 3.58l.27.32 3.67-3.5-.27-.29A15.29 15.29 0 0 0 180.58.53a15.44 15.44 0 0 0 0 30.88 15 15 0 0 0 7.66-1.95 15.59 15.59 0 0 0 4.17-3.88c2.07-2.69 2.38-6.43 2.38-8.43a11.66 11.66 0 0 0-.08-1.32zM123.69 1.07h4.99v21.04h-4.99zM0 .05V31h5.07V12l9.91 9.43 9.86-9.44V31h5.15V.05l-15.01 14.5L0 .05zM210.38 13l-1.25-.4-.33-.1c-1.53-.49-4.1-1.3-4.1-3.85a4.22 4.22 0 0 1 4.39-3.91c2.13 0 4.61 1.09 4.61 4.15V9h5.15v-.15c0-4.91-4-8.34-9.77-8.34-6.58 0-9.54 4.76-9.54 8.14a7.41 7.41 0 0 0 2.32 5.64c1.53 1.3 2.54 1.77 7.18 3.34l.61.2c2.22.73 4.73 1.57 4.73 4.51s-2.13 4.87-5.3 4.87c-5.28 0-5.34-5-5.34-5.23v-.12h-5.14V22a8.64 8.64 0 0 0 3.49 7.22 11.91 11.91 0 0 0 7 2.2c6.15 0 10.45-3.73 10.45-9.06 0-6.54-5.08-8.13-9.16-9.36z" fill="#fff"/></svg>