<svg id="Calque_1" data-name="Calque 1" xmlns="http://www.w3.org/2000/svg" width="32" height="32" viewBox="0 0 32 32"><title>Sans titre - 1</title><g id="Layer_574" data-name="Layer 574"><circle cx="16" cy="16" r="16" fill="#fff"/><path d="M24.15 9.35a7.15 7.15 0 0 1-2.25.85 3.56 3.56 0 0 0-2.58-1.1 3.49 3.49 0 0 0-3.45 4.28 10.1 10.1 0 0 1-7.29-3.64 3.43 3.43 0 0 0-.48 1.75 3.47 3.47 0 0 0 1.57 2.9 3.58 3.58 0 0 1-1.6-.39 3.5 3.5 0 0 0 2.84 3.42 3.61 3.61 0 0 1-1.6.06 3.54 3.54 0 0 0 3.31 2.42 7.17 7.17 0 0 1-4.4 1.49 7.32 7.32 0 0 1-.84 0 10.14 10.14 0 0 0 5.42 1.51A9.92 9.92 0 0 0 22.87 13v-.45a7.12 7.12 0 0 0 1.77-1.8 7.14 7.14 0 0 1-2 .55 3.51 3.51 0 0 0 1.51-1.95z" fill="#1a1a1a"/></g></svg>