<svg id="Calque_1" data-name="Calque 1" xmlns="http://www.w3.org/2000/svg" width="32" height="32" viewBox="0 0 32 32"><title>youtube</title><g id="Layer_543" data-name="Layer 543"><circle cx="16" cy="16" r="16" fill="#fff"/><path d="M18.42 13.42a1.08 1.08 0 0 1-.19-.69V8.42h1.05v4a.43.43 0 0 0 .07.26.25.25 0 0 0 .21.08.61.61 0 0 0 .29-.11 1.47 1.47 0 0 0 .32-.28V8.42h1.06v5.16h-1.04V13a2.21 2.21 0 0 1-.61.48 1.34 1.34 0 0 1-.61.17.66.66 0 0 1-.55-.23zm-3.68-.1a1.37 1.37 0 0 1-.41-1V9.6a1.18 1.18 0 0 1 .42-1 1.73 1.73 0 0 1 1.15-.35 1.56 1.56 0 0 1 1.1.42 1.24 1.24 0 0 1 .42 1v2.63a1.34 1.34 0 0 1-.41 1 1.61 1.61 0 0 1-1.13.38 1.55 1.55 0 0 1-1.15-.36zm.67-.95a.45.45 0 0 0 .11.33.41.41 0 0 0 .32.12.47.47 0 0 0 .34-.12.43.43 0 0 0 .13-.33V9.56a.34.34 0 0 0-.13-.27.52.52 0 0 0-.34-.1.46.46 0 0 0-.31.1.35.35 0 0 0-.12.27zm-3.74 1.21h1.19v-2.9l1.38-4.09H13l-.74 2.8h-.07l-.77-2.8h-1.2l1.41 4.22zM21 18.77a.37.37 0 0 0-.32.13.69.69 0 0 0-.1.42v.47h.83v-.47a.7.7 0 0 0-.1-.42.36.36 0 0 0-.31-.13zm-3.23 0a.48.48 0 0 0-.2 0 .7.7 0 0 0-.19.14v2.92a.79.79 0 0 0 .22.16.53.53 0 0 0 .23.05A.3.3 0 0 0 18 22a.51.51 0 0 0 .08-.32v-2.44a.56.56 0 0 0-.1-.36.36.36 0 0 0-.26-.13zm7.53-.16v2.72a3.38 3.38 0 0 1-3.38 3.38H10.13a3.38 3.38 0 0 1-3.38-3.38v-2.74a3.38 3.38 0 0 1 3.38-3.38h11.74a3.38 3.38 0 0 1 3.38 3.38zM12.59 16.4H9.36v.92h1.09v5.43h1.05v-5.42h1.09zm3.09 1.67h-.94v3.56a1.33 1.33 0 0 1-.29.25.53.53 0 0 1-.26.1.23.23 0 0 1-.19-.08.4.4 0 0 1-.06-.24v-3.59H13V22a1 1 0 0 0 .16.63.58.58 0 0 0 .49.21 1.13 1.13 0 0 0 .54-.15 2 2 0 0 0 .54-.43v.52h.94zm3.4 1.12a1.4 1.4 0 0 0-.23-.88.81.81 0 0 0-.68-.3.93.93 0 0 0-.43.11 1.5 1.5 0 0 0-.4.33v-2h-.95v6.35h.95v-.36a1.19 1.19 0 0 0 .4.32 1.09 1.09 0 0 0 .49.1.77.77 0 0 0 .64-.26 1.16 1.16 0 0 0 .22-.76zm3.25.14a1.4 1.4 0 0 0-.35-1A1.31 1.31 0 0 0 21 18a1.41 1.41 0 0 0-1 .38 1.32 1.32 0 0 0-.4 1v2.1a1.49 1.49 0 0 0 .36 1.06 1.28 1.28 0 0 0 1 .39 1.4 1.4 0 0 0 1.04-.41 1.5 1.5 0 0 0 .35-1.09v-.24h-1v.21a1 1 0 0 1-.09.54.39.39 0 0 1-.33.12.35.35 0 0 1-.32-.14 1 1 0 0 1-.09-.52v-.88h1.79z" fill="#1a1a1a"/></g></svg>