<svg id="Calque_1" data-name="Calque 1" xmlns="http://www.w3.org/2000/svg" width="219.54" height="32" viewBox="0 0 219.54 32"><title>Sans titre - 1</title><rect x="123.69" y="25.55" width="4.99" height="5.43" fill="#e1001a"/><path d="M58.09,30.42,57.8,31h5.4l2.35-4.77H80.51L82.86,31h5.4L73.05.08Zm9.82-9L73,11l5.11,10.4Z" fill="#1a171b"/><polygon points="36.93 30.99 53.56 30.99 53.56 26.14 41.78 26.14 41.78 18.45 52.88 18.45 52.88 13.6 41.78 13.6 41.78 5.89 53.56 5.89 53.56 1.04 36.93 1.04 36.93 30.99" fill="#1a171b"/><polygon points="110.54 19.09 92.33 0 92.33 30.99 97.18 30.99 97.18 12.88 115.39 32 115.39 1.05 110.54 1.05 110.54 19.09" fill="#1a171b"/><polygon points="155.15 19.09 136.94 0 136.94 30.99 141.79 30.99 141.79 12.88 160 32 160 1.05 155.15 1.05 155.15 19.09" fill="#1a171b"/><path d="M194.68,15.47H180.46v4.85h8.75a2.89,2.89,0,0,1-.11.44,8.74,8.74,0,0,1-8.6,5.9h0a10,10,0,0,1-7.08-3A10.83,10.83,0,0,1,170.25,16,10.49,10.49,0,0,1,180.51,5.3a10.09,10.09,0,0,1,7.66,3.58l.27.32,3.67-3.5-.27-.29A15.29,15.29,0,0,0,180.58.53a15.44,15.44,0,0,0,0,30.88,15,15,0,0,0,7.66-1.95,15.59,15.59,0,0,0,4.17-3.88c2.07-2.69,2.38-6.43,2.38-8.43a11.66,11.66,0,0,0-.08-1.32Z" fill="#1a171b"/><rect x="123.69" y="1.07" width="4.99" height="21.04" fill="#1a171b"/><polygon points="0 0.05 0 31 5.07 31 5.07 12 14.98 21.43 24.84 11.99 24.84 31 29.99 31 29.99 0.05 14.98 14.55 0 0.05" fill="#1a171b"/><path d="M210.38,13l-1.25-.4-.33-.1c-1.53-.49-4.1-1.3-4.1-3.85a4.22,4.22,0,0,1,4.39-3.91c2.13,0,4.61,1.09,4.61,4.15V9h5.15V8.85c0-4.91-4-8.34-9.77-8.34-6.58,0-9.54,4.76-9.54,8.14a7.41,7.41,0,0,0,2.32,5.64c1.53,1.3,2.54,1.77,7.18,3.34l.61.2c2.22.73,4.73,1.57,4.73,4.51s-2.13,4.87-5.3,4.87c-5.28,0-5.34-5-5.34-5.23v-.12H198.6V22a8.64,8.64,0,0,0,3.49,7.22,11.91,11.91,0,0,0,7,2.2c6.15,0,10.45-3.73,10.45-9.06C219.54,15.82,214.46,14.23,210.38,13Z" fill="#1a171b"/></svg>